<svg width="23" height="31" viewBox="0 0 23 31" fill="none" xmlns="http://www.w3.org/2000/svg">
<path d="M14.2029 0.608317C16.6914 -0.726588 19.7909 0.208765 21.1258 2.69718C22.4603 5.18553 21.5252 8.28521 19.0369 9.62004L18.2088 10.0634C19.4156 10.4577 20.4782 11.2987 21.1258 12.5058C22.4604 14.994 21.5259 18.0927 19.0379 19.4277L18.2234 19.8642L18.9578 20.0946C21.652 20.9406 23.1503 23.8107 22.3045 26.5048C21.4585 29.1987 18.5893 30.6971 15.8953 29.8515L3.58282 25.9853C0.888855 25.1392 -0.609768 22.2692 0.236143 19.5751C0.624388 18.3389 1.43959 17.3551 2.46759 16.7333C2.58512 16.6573 2.70631 16.5848 2.83185 16.5175L3.65997 16.0722C2.45367 15.6777 1.39041 14.8382 0.742979 13.6318C-0.591811 11.1436 0.342983 8.04403 2.83087 6.7089L14.2029 0.608317Z" fill="url(#paint0_linear_47_302)"/>
<path d="M15.5 14.634C16.1667 15.0189 16.1667 15.9811 15.5 16.366L10.25 19.3971C9.58333 19.782 8.75 19.3009 8.75 18.5311L8.75 12.4689C8.75 11.6991 9.58333 11.218 10.25 11.6029L15.5 14.634Z" fill="white"/>
<defs>
<linearGradient id="paint0_linear_47_302" x1="2.13387" y1="4.49981" x2="27.2887" y2="18.2013" gradientUnits="userSpaceOnUse">
<stop stop-color="#34D399"/>
<stop offset="1" stop-color="#14A071"/>
</linearGradient>
</defs>
</svg>
